<?xml version="1.0" encoding="UTF-8" standalone="no"?>
<!DOCTYPE svg PUBLIC "-//W3C//DTD SVG 1.1//EN"
 "http://www.w3.org/Graphics/SVG/1.1/DTD/svg11.dtd">
<!-- Generated by graphviz version 2.43.0 (0)
 -->
<!-- Title: G Pages: 1 -->
<svg width="1421pt" height="620pt"
 viewBox="0.00 0.00 1420.73 620.00" xmlns="http://www.w3.org/2000/svg" xmlns:xlink="http://www.w3.org/1999/xlink">
<g id="graph0" class="graph" transform="scale(1 1) rotate(0) translate(4 616)">
<title>G</title>
<polygon fill="white" stroke="transparent" points="-4,4 -4,-616 1416.73,-616 1416.73,4 -4,4"/>
<!-- /nix/store/38i60bdrb1kwiyjd8zvk7cbrdyqilavz&#45;node&#45;dependencies&#45;Node2NixProblem&#45;0.0.1 -->
<g id="node1" class="node">
<title>/nix/store/38i60bdrb1kwiyjd8zvk7cbrdyqilavz&#45;node&#45;dependencies&#45;Node2NixProblem&#45;0.0.1</title>
<polygon fill="#ff0000" stroke="black" points="636.23,-36 313.23,-36 313.23,0 636.23,0 636.23,-36"/>
<text text-anchor="middle" x="474.73" y="-14.3" font-family="Times-Roman" font-size="14.00">node&#45;dependencies&#45;Node2NixProblem&#45;0.0.1</text>
</g>
<!-- /nix/store/c4wxsn4jays9j31y5z9f83nr2cp7l4pa&#45;bash&#45;4.4&#45;p23 -->
<g id="node2" class="node">
<title>/nix/store/c4wxsn4jays9j31y5z9f83nr2cp7l4pa&#45;bash&#45;4.4&#45;p23</title>
<polygon fill="#ff0000" stroke="black" points="467.73,-324 357.73,-324 357.73,-288 467.73,-288 467.73,-324"/>
<text text-anchor="middle" x="412.73" y="-302.3" font-family="Times-Roman" font-size="14.00">bash&#45;4.4&#45;p23</text>
</g>
<!-- /nix/store/c4wxsn4jays9j31y5z9f83nr2cp7l4pa&#45;bash&#45;4.4&#45;p23&#45;&gt;/nix/store/38i60bdrb1kwiyjd8zvk7cbrdyqilavz&#45;node&#45;dependencies&#45;Node2NixProblem&#45;0.0.1 -->
<g id="edge1" class="edge">
<title>/nix/store/c4wxsn4jays9j31y5z9f83nr2cp7l4pa&#45;bash&#45;4.4&#45;p23&#45;&gt;/nix/store/38i60bdrb1kwiyjd8zvk7cbrdyqilavz&#45;node&#45;dependencies&#45;Node2NixProblem&#45;0.0.1</title>
<path fill="none" stroke="black" d="M416.08,-287.92C419.62,-269.98 425.41,-240.98 430.73,-216 443.7,-155.06 459.87,-83.75 468.55,-45.87"/>
<polygon fill="black" stroke="black" points="471.96,-46.63 470.79,-36.1 465.14,-45.07 471.96,-46.63"/>
</g>
<!-- /nix/store/kr8m08mrl0df6ag7wrmbih1phyd355n2&#45;nodejs&#45;14.5.0 -->
<g id="node3" class="node">
<title>/nix/store/kr8m08mrl0df6ag7wrmbih1phyd355n2&#45;nodejs&#45;14.5.0</title>
<polygon fill="#ff0000" stroke="black" points="629.23,-108 516.23,-108 516.23,-72 629.23,-72 629.23,-108"/>
<text text-anchor="middle" x="572.73" y="-86.3" font-family="Times-Roman" font-size="14.00">nodejs&#45;14.5.0</text>
</g>
<!-- /nix/store/c4wxsn4jays9j31y5z9f83nr2cp7l4pa&#45;bash&#45;4.4&#45;p23&#45;&gt;/nix/store/kr8m08mrl0df6ag7wrmbih1phyd355n2&#45;nodejs&#45;14.5.0 -->
<g id="edge10" class="edge">
<title>/nix/store/c4wxsn4jays9j31y5z9f83nr2cp7l4pa&#45;bash&#45;4.4&#45;p23&#45;&gt;/nix/store/kr8m08mrl0df6ag7wrmbih1phyd355n2&#45;nodejs&#45;14.5.0</title>
<path fill="none" stroke="blue" d="M418.49,-287.75C431.71,-248.56 463.79,-155.31 473.73,-144 485.24,-130.9 500.79,-120.48 516.15,-112.47"/>
<polygon fill="blue" stroke="blue" points="517.73,-115.6 525.15,-108.03 514.63,-109.32 517.73,-115.6"/>
</g>
<!-- /nix/store/0dqcnzm1zippmmfcay23lnxg9wrniazs&#45;icu4c&#45;66.1 -->
<g id="node6" class="node">
<title>/nix/store/0dqcnzm1zippmmfcay23lnxg9wrniazs&#45;icu4c&#45;66.1</title>
<polygon fill="#ff0000" stroke="black" points="350.73,-252 260.73,-252 260.73,-216 350.73,-216 350.73,-252"/>
<text text-anchor="middle" x="305.73" y="-230.3" font-family="Times-Roman" font-size="14.00">icu4c&#45;66.1</text>
</g>
<!-- /nix/store/c4wxsn4jays9j31y5z9f83nr2cp7l4pa&#45;bash&#45;4.4&#45;p23&#45;&gt;/nix/store/0dqcnzm1zippmmfcay23lnxg9wrniazs&#45;icu4c&#45;66.1 -->
<g id="edge18" class="edge">
<title>/nix/store/c4wxsn4jays9j31y5z9f83nr2cp7l4pa&#45;bash&#45;4.4&#45;p23&#45;&gt;/nix/store/0dqcnzm1zippmmfcay23lnxg9wrniazs&#45;icu4c&#45;66.1</title>
<path fill="none" stroke="burlywood" d="M386.55,-287.88C372.69,-278.81 355.49,-267.55 340.52,-257.76"/>
<polygon fill="burlywood" stroke="burlywood" points="342.29,-254.74 332,-252.19 338.46,-260.59 342.29,-254.74"/>
</g>
<!-- /nix/store/7q4crsd8kvmma32ff2xw4w9ydj5k26cy&#45;python3&#45;3.8.3 -->
<g id="node8" class="node">
<title>/nix/store/7q4crsd8kvmma32ff2xw4w9ydj5k26cy&#45;python3&#45;3.8.3</title>
<polygon fill="#ff0000" stroke="black" points="904.73,-252 788.73,-252 788.73,-216 904.73,-216 904.73,-252"/>
<text text-anchor="middle" x="846.73" y="-230.3" font-family="Times-Roman" font-size="14.00">python3&#45;3.8.3</text>
</g>
<!-- /nix/store/c4wxsn4jays9j31y5z9f83nr2cp7l4pa&#45;bash&#45;4.4&#45;p23&#45;&gt;/nix/store/7q4crsd8kvmma32ff2xw4w9ydj5k26cy&#45;python3&#45;3.8.3 -->
<g id="edge23" class="edge">
<title>/nix/store/c4wxsn4jays9j31y5z9f83nr2cp7l4pa&#45;bash&#45;4.4&#45;p23&#45;&gt;/nix/store/7q4crsd8kvmma32ff2xw4w9ydj5k26cy&#45;python3&#45;3.8.3</title>
<path fill="none" stroke="magenta" d="M468.14,-296.06C547.38,-283.28 692.95,-259.8 778.65,-245.98"/>
<polygon fill="magenta" stroke="magenta" points="779.23,-249.43 788.54,-244.39 778.11,-242.52 779.23,-249.43"/>
</g>
<!-- /nix/store/cmpal8wvvi9nfrsvwncqf8d0ji1iq5iq&#45;icu4c&#45;66.1&#45;dev -->
<g id="node10" class="node">
<title>/nix/store/cmpal8wvvi9nfrsvwncqf8d0ji1iq5iq&#45;icu4c&#45;66.1&#45;dev</title>
<polygon fill="#ff0000" stroke="black" points="204.23,-180 83.23,-180 83.23,-144 204.23,-144 204.23,-180"/>
<text text-anchor="middle" x="143.73" y="-158.3" font-family="Times-Roman" font-size="14.00">icu4c&#45;66.1&#45;dev</text>
</g>
<!-- /nix/store/c4wxsn4jays9j31y5z9f83nr2cp7l4pa&#45;bash&#45;4.4&#45;p23&#45;&gt;/nix/store/cmpal8wvvi9nfrsvwncqf8d0ji1iq5iq&#45;icu4c&#45;66.1&#45;dev -->
<g id="edge41" class="edge">
<title>/nix/store/c4wxsn4jays9j31y5z9f83nr2cp7l4pa&#45;bash&#45;4.4&#45;p23&#45;&gt;/nix/store/cmpal8wvvi9nfrsvwncqf8d0ji1iq5iq&#45;icu4c&#45;66.1&#45;dev</title>
<path fill="none" stroke="magenta" d="M407.12,-287.77C399.61,-267.47 384.3,-234.19 359.73,-216 317.75,-184.93 259.82,-171.89 214.53,-166.51"/>
<polygon fill="magenta" stroke="magenta" points="214.8,-163.02 204.48,-165.42 214.04,-169.98 214.8,-163.02"/>
</g>
<!-- /nix/store/kr8m08mrl0df6ag7wrmbih1phyd355n2&#45;nodejs&#45;14.5.0&#45;&gt;/nix/store/38i60bdrb1kwiyjd8zvk7cbrdyqilavz&#45;node&#45;dependencies&#45;Node2NixProblem&#45;0.0.1 -->
<g id="edge2" class="edge">
<title>/nix/store/kr8m08mrl0df6ag7wrmbih1phyd355n2&#45;nodejs&#45;14.5.0&#45;&gt;/nix/store/38i60bdrb1kwiyjd8zvk7cbrdyqilavz&#45;node&#45;dependencies&#45;Node2NixProblem&#45;0.0.1</title>
<path fill="none" stroke="red" d="M548.76,-71.88C536.18,-62.89 520.6,-51.76 506.98,-42.03"/>
<polygon fill="red" stroke="red" points="508.97,-39.15 498.79,-36.19 504.9,-44.85 508.97,-39.15"/>
</g>
<!-- /nix/store/bpgdx6qqqzzi3szb0y3di3j3660f3wkj&#45;glibc&#45;2.31 -->
<g id="node4" class="node">
<title>/nix/store/bpgdx6qqqzzi3szb0y3di3j3660f3wkj&#45;glibc&#45;2.31</title>
<polygon fill="#ff0000" stroke="black" points="678.73,-468 592.73,-468 592.73,-432 678.73,-432 678.73,-468"/>
<text text-anchor="middle" x="635.73" y="-446.3" font-family="Times-Roman" font-size="14.00">glibc&#45;2.31</text>
</g>
<!-- /nix/store/bpgdx6qqqzzi3szb0y3di3j3660f3wkj&#45;glibc&#45;2.31&#45;&gt;/nix/store/c4wxsn4jays9j31y5z9f83nr2cp7l4pa&#45;bash&#45;4.4&#45;p23 -->
<g id="edge3" class="edge">
<title>/nix/store/bpgdx6qqqzzi3szb0y3di3j3660f3wkj&#45;glibc&#45;2.31&#45;&gt;/nix/store/c4wxsn4jays9j31y5z9f83nr2cp7l4pa&#45;bash&#45;4.4&#45;p23</title>
<path fill="none" stroke="green" d="M592.56,-445.97C529.37,-440.54 416.49,-426.71 391.73,-396 377.43,-378.26 385.76,-352.44 395.85,-333.17"/>
<polygon fill="green" stroke="green" points="398.98,-334.74 400.85,-324.31 392.89,-331.3 398.98,-334.74"/>
</g>
<!-- /nix/store/bpgdx6qqqzzi3szb0y3di3j3660f3wkj&#45;glibc&#45;2.31&#45;&gt;/nix/store/kr8m08mrl0df6ag7wrmbih1phyd355n2&#45;nodejs&#45;14.5.0 -->
<g id="edge9" class="edge">
<title>/nix/store/bpgdx6qqqzzi3szb0y3di3j3660f3wkj&#45;glibc&#45;2.31&#45;&gt;/nix/store/kr8m08mrl0df6ag7wrmbih1phyd355n2&#45;nodejs&#45;14.5.0</title>
<path fill="none" stroke="green" d="M678.91,-447.66C822.49,-442.93 1278.17,-425.73 1336.73,-396 1383.11,-372.45 1412.73,-359.02 1412.73,-307 1412.73,-307 1412.73,-307 1412.73,-233 1412.73,-162.61 1348.19,-167.19 1281.73,-144 1164.31,-103.03 792.5,-93.72 639.49,-91.61"/>
<polygon fill="green" stroke="green" points="639.34,-88.11 629.3,-91.48 639.25,-95.11 639.34,-88.11"/>
</g>
<!-- /nix/store/bpgdx6qqqzzi3szb0y3di3j3660f3wkj&#45;glibc&#45;2.31&#45;&gt;/nix/store/0dqcnzm1zippmmfcay23lnxg9wrniazs&#45;icu4c&#45;66.1 -->
<g id="edge17" class="edge">
<title>/nix/store/bpgdx6qqqzzi3szb0y3di3j3660f3wkj&#45;glibc&#45;2.31&#45;&gt;/nix/store/0dqcnzm1zippmmfcay23lnxg9wrniazs&#45;icu4c&#45;66.1</title>
<path fill="none" stroke="magenta" d="M592.47,-444.71C528.58,-437.6 413.03,-421.58 380.73,-396 338.05,-362.19 318.57,-298.43 310.58,-262.12"/>
<polygon fill="magenta" stroke="magenta" points="313.99,-261.31 308.54,-252.22 307.13,-262.72 313.99,-261.31"/>
</g>
<!-- /nix/store/3qvdp59fyp81gr2dsgl950xg0w5m1d5c&#45;gcc&#45;9.3.0&#45;lib -->
<g id="node7" class="node">
<title>/nix/store/3qvdp59fyp81gr2dsgl950xg0w5m1d5c&#45;gcc&#45;9.3.0&#45;lib</title>
<polygon fill="#ff0000" stroke="black" points="301.73,-324 197.73,-324 197.73,-288 301.73,-288 301.73,-324"/>
<text text-anchor="middle" x="249.73" y="-302.3" font-family="Times-Roman" font-size="14.00">gcc&#45;9.3.0&#45;lib</text>
</g>
<!-- /nix/store/bpgdx6qqqzzi3szb0y3di3j3660f3wkj&#45;glibc&#45;2.31&#45;&gt;/nix/store/3qvdp59fyp81gr2dsgl950xg0w5m1d5c&#45;gcc&#45;9.3.0&#45;lib -->
<g id="edge19" class="edge">
<title>/nix/store/bpgdx6qqqzzi3szb0y3di3j3660f3wkj&#45;glibc&#45;2.31&#45;&gt;/nix/store/3qvdp59fyp81gr2dsgl950xg0w5m1d5c&#45;gcc&#45;9.3.0&#45;lib</title>
<path fill="none" stroke="black" d="M592.59,-445.86C516.35,-439.66 361.5,-423.96 315.73,-396 291.5,-381.2 273.27,-353.87 262.17,-333.39"/>
<polygon fill="black" stroke="black" points="265.15,-331.52 257.44,-324.25 258.93,-334.74 265.15,-331.52"/>
</g>
<!-- /nix/store/bpgdx6qqqzzi3szb0y3di3j3660f3wkj&#45;glibc&#45;2.31&#45;&gt;/nix/store/7q4crsd8kvmma32ff2xw4w9ydj5k26cy&#45;python3&#45;3.8.3 -->
<g id="edge22" class="edge">
<title>/nix/store/bpgdx6qqqzzi3szb0y3di3j3660f3wkj&#45;glibc&#45;2.31&#45;&gt;/nix/store/7q4crsd8kvmma32ff2xw4w9ydj5k26cy&#45;python3&#45;3.8.3</title>
<path fill="none" stroke="blue" d="M678.8,-447.02C747.82,-442.83 878.35,-430.46 906.73,-396 924.19,-374.8 885.48,-300.79 862.38,-260.91"/>
<polygon fill="blue" stroke="blue" points="865.38,-259.11 857.3,-252.26 859.34,-262.66 865.38,-259.11"/>
</g>
<!-- /nix/store/a9d3hw7jnhlk9i7w2crni4fc6s1yxzl3&#45;libuv&#45;1.38.0 -->
<g id="node9" class="node">
<title>/nix/store/a9d3hw7jnhlk9i7w2crni4fc6s1yxzl3&#45;libuv&#45;1.38.0</title>
<polygon fill="#ff0000" stroke="black" points="584.23,-180 483.23,-180 483.23,-144 584.23,-144 584.23,-180"/>
<text text-anchor="middle" x="533.73" y="-158.3" font-family="Times-Roman" font-size="14.00">libuv&#45;1.38.0</text>
</g>
<!-- /nix/store/bpgdx6qqqzzi3szb0y3di3j3660f3wkj&#45;glibc&#45;2.31&#45;&gt;/nix/store/a9d3hw7jnhlk9i7w2crni4fc6s1yxzl3&#45;libuv&#45;1.38.0 -->
<g id="edge34" class="edge">
<title>/nix/store/bpgdx6qqqzzi3szb0y3di3j3660f3wkj&#45;glibc&#45;2.31&#45;&gt;/nix/store/a9d3hw7jnhlk9i7w2crni4fc6s1yxzl3&#45;libuv&#45;1.38.0</title>
<path fill="none" stroke="blue" d="M592.31,-444.33C536.71,-437.35 445.11,-422.13 424.73,-396 414.89,-383.38 417.3,-374.17 424.73,-360 437.77,-335.1 459.66,-346.33 476.73,-324 507.77,-283.4 522.85,-224.5 529.39,-190.33"/>
<polygon fill="blue" stroke="blue" points="532.89,-190.63 531.22,-180.17 526.01,-189.39 532.89,-190.63"/>
</g>
<!-- /nix/store/bpgdx6qqqzzi3szb0y3di3j3660f3wkj&#45;glibc&#45;2.31&#45;&gt;/nix/store/cmpal8wvvi9nfrsvwncqf8d0ji1iq5iq&#45;icu4c&#45;66.1&#45;dev -->
<g id="edge40" class="edge">
<title>/nix/store/bpgdx6qqqzzi3szb0y3di3j3660f3wkj&#45;glibc&#45;2.31&#45;&gt;/nix/store/cmpal8wvvi9nfrsvwncqf8d0ji1iq5iq&#45;icu4c&#45;66.1&#45;dev</title>
<path fill="none" stroke="blue" d="M592.62,-447.48C464.47,-442.64 91.91,-426.09 46.73,-396 -19.86,-351.66 -10.24,-273.16 45.73,-216 58.17,-203.29 74.32,-192.87 89.91,-184.74"/>
<polygon fill="blue" stroke="blue" points="91.6,-187.81 98.99,-180.22 88.48,-181.55 91.6,-187.81"/>
</g>
<!-- /nix/store/p1vgrfa31k73256nbrqsqcnvb9ij84lh&#45;zlib&#45;1.2.11 -->
<g id="node13" class="node">
<title>/nix/store/p1vgrfa31k73256nbrqsqcnvb9ij84lh&#45;zlib&#45;1.2.11</title>
<polygon fill="#ff0000" stroke="black" points="525.23,-396 434.23,-396 434.23,-360 525.23,-360 525.23,-396"/>
<text text-anchor="middle" x="479.73" y="-374.3" font-family="Times-Roman" font-size="14.00">zlib&#45;1.2.11</text>
</g>
<!-- /nix/store/bpgdx6qqqzzi3szb0y3di3j3660f3wkj&#45;glibc&#45;2.31&#45;&gt;/nix/store/p1vgrfa31k73256nbrqsqcnvb9ij84lh&#45;zlib&#45;1.2.11 -->
<g id="edge51" class="edge">
<title>/nix/store/bpgdx6qqqzzi3szb0y3di3j3660f3wkj&#45;glibc&#45;2.31&#45;&gt;/nix/store/p1vgrfa31k73256nbrqsqcnvb9ij84lh&#45;zlib&#45;1.2.11</title>
<path fill="none" stroke="green" d="M597.57,-431.88C576.34,-422.35 549.72,-410.41 527.16,-400.28"/>
<polygon fill="green" stroke="green" points="528.32,-396.97 517.77,-396.07 525.46,-403.36 528.32,-396.97"/>
</g>
<!-- /nix/store/rn5djk7q6wd8xzdbnmh649fdmbd8pwgk&#45;openssl&#45;1.1.1g -->
<g id="node14" class="node">
<title>/nix/store/rn5djk7q6wd8xzdbnmh649fdmbd8pwgk&#45;openssl&#45;1.1.1g</title>
<polygon fill="#ff0000" stroke="black" points="1346.73,-324 1226.73,-324 1226.73,-288 1346.73,-288 1346.73,-324"/>
<text text-anchor="middle" x="1286.73" y="-302.3" font-family="Times-Roman" font-size="14.00">openssl&#45;1.1.1g</text>
</g>
<!-- /nix/store/bpgdx6qqqzzi3szb0y3di3j3660f3wkj&#45;glibc&#45;2.31&#45;&gt;/nix/store/rn5djk7q6wd8xzdbnmh649fdmbd8pwgk&#45;openssl&#45;1.1.1g -->
<g id="edge54" class="edge">
<title>/nix/store/bpgdx6qqqzzi3szb0y3di3j3660f3wkj&#45;glibc&#45;2.31&#45;&gt;/nix/store/rn5djk7q6wd8xzdbnmh649fdmbd8pwgk&#45;openssl&#45;1.1.1g</title>
<path fill="none" stroke="burlywood" d="M679.19,-448.64C817.15,-447.07 1238.59,-438.77 1280.73,-396 1296.39,-380.1 1296.32,-353.9 1293.27,-334.04"/>
<polygon fill="burlywood" stroke="burlywood" points="1296.68,-333.23 1291.41,-324.03 1289.8,-334.51 1296.68,-333.23"/>
</g>
<!-- /nix/store/1jzmwqrpknlbfnb9a4r5qfw9iz292m9w&#45;readline&#45;6.3p08 -->
<g id="node15" class="node">
<title>/nix/store/1jzmwqrpknlbfnb9a4r5qfw9iz292m9w&#45;readline&#45;6.3p08</title>
<polygon fill="#ff0000" stroke="black" points="1170.23,-324 1043.23,-324 1043.23,-288 1170.23,-288 1170.23,-324"/>
<text text-anchor="middle" x="1106.73" y="-302.3" font-family="Times-Roman" font-size="14.00">readline&#45;6.3p08</text>
</g>
<!-- /nix/store/bpgdx6qqqzzi3szb0y3di3j3660f3wkj&#45;glibc&#45;2.31&#45;&gt;/nix/store/1jzmwqrpknlbfnb9a4r5qfw9iz292m9w&#45;readline&#45;6.3p08 -->
<g id="edge32" class="edge">
<title>/nix/store/bpgdx6qqqzzi3szb0y3di3j3660f3wkj&#45;glibc&#45;2.31&#45;&gt;/nix/store/1jzmwqrpknlbfnb9a4r5qfw9iz292m9w&#45;readline&#45;6.3p08</title>
<path fill="none" stroke="red" d="M679.11,-447.17C789.03,-442.1 1071.87,-426.23 1100.73,-396 1116.05,-379.95 1116.1,-354 1113.18,-334.25"/>
<polygon fill="red" stroke="red" points="1116.6,-333.51 1111.38,-324.29 1109.71,-334.75 1116.6,-333.51"/>
</g>
<!-- /nix/store/baj4p57p126mlan10gd4xar1idmkqxz8&#45;sqlite&#45;3.32.3 -->
<g id="node16" class="node">
<title>/nix/store/baj4p57p126mlan10gd4xar1idmkqxz8&#45;sqlite&#45;3.32.3</title>
<polygon fill="#ff0000" stroke="black" points="742.73,-324 638.73,-324 638.73,-288 742.73,-288 742.73,-324"/>
<text text-anchor="middle" x="690.73" y="-302.3" font-family="Times-Roman" font-size="14.00">sqlite&#45;3.32.3</text>
</g>
<!-- /nix/store/bpgdx6qqqzzi3szb0y3di3j3660f3wkj&#45;glibc&#45;2.31&#45;&gt;/nix/store/baj4p57p126mlan10gd4xar1idmkqxz8&#45;sqlite&#45;3.32.3 -->
<g id="edge35" class="edge">
<title>/nix/store/bpgdx6qqqzzi3szb0y3di3j3660f3wkj&#45;glibc&#45;2.31&#45;&gt;/nix/store/baj4p57p126mlan10gd4xar1idmkqxz8&#45;sqlite&#45;3.32.3</title>
<path fill="none" stroke="magenta" d="M605.43,-431.8C592.85,-422.9 579.61,-410.77 572.73,-396 565.98,-381.49 564.04,-373.43 572.73,-360 579.73,-349.17 604.2,-337.4 629.05,-327.7"/>
<polygon fill="magenta" stroke="magenta" points="630.45,-330.91 638.55,-324.09 627.96,-324.37 630.45,-330.91"/>
</g>
<!-- /nix/store/cfg4p75j32wmjrhfhkmnx7d9hhjnzmz8&#45;xz&#45;5.2.5 -->
<g id="node17" class="node">
<title>/nix/store/cfg4p75j32wmjrhfhkmnx7d9hhjnzmz8&#45;xz&#45;5.2.5</title>
<polygon fill="#ff0000" stroke="black" points="986.73,-324 912.73,-324 912.73,-288 986.73,-288 986.73,-324"/>
<text text-anchor="middle" x="949.73" y="-302.3" font-family="Times-Roman" font-size="14.00">xz&#45;5.2.5</text>
</g>
<!-- /nix/store/bpgdx6qqqzzi3szb0y3di3j3660f3wkj&#45;glibc&#45;2.31&#45;&gt;/nix/store/cfg4p75j32wmjrhfhkmnx7d9hhjnzmz8&#45;xz&#45;5.2.5 -->
<g id="edge37" class="edge">
<title>/nix/store/bpgdx6qqqzzi3szb0y3di3j3660f3wkj&#45;glibc&#45;2.31&#45;&gt;/nix/store/cfg4p75j32wmjrhfhkmnx7d9hhjnzmz8&#45;xz&#45;5.2.5</title>
<path fill="none" stroke="black" d="M678.97,-447.64C754.29,-444.31 904.85,-433.06 939.73,-396 954.92,-379.85 956.29,-354.08 954.53,-334.42"/>
<polygon fill="black" stroke="black" points="957.97,-333.73 953.29,-324.22 951.02,-334.57 957.97,-333.73"/>
</g>
<!-- /nix/store/dgdach00xn196vjsnmisak3maab7x6w5&#45;ncurses&#45;6.2 -->
<g id="node18" class="node">
<title>/nix/store/dgdach00xn196vjsnmisak3maab7x6w5&#45;ncurses&#45;6.2</title>
<polygon fill="#ff0000" stroke="black" points="1091.23,-396 992.23,-396 992.23,-360 1091.23,-360 1091.23,-396"/>
<text text-anchor="middle" x="1041.73" y="-374.3" font-family="Times-Roman" font-size="14.00">ncurses&#45;6.2</text>
</g>
<!-- /nix/store/bpgdx6qqqzzi3szb0y3di3j3660f3wkj&#45;glibc&#45;2.31&#45;&gt;/nix/store/dgdach00xn196vjsnmisak3maab7x6w5&#45;ncurses&#45;6.2 -->
<g id="edge43" class="edge">
<title>/nix/store/bpgdx6qqqzzi3szb0y3di3j3660f3wkj&#45;glibc&#45;2.31&#45;&gt;/nix/store/dgdach00xn196vjsnmisak3maab7x6w5&#45;ncurses&#45;6.2</title>
<path fill="none" stroke="black" d="M678.92,-443.8C744.05,-435.62 871.15,-418.35 977.73,-396 979.17,-395.7 980.63,-395.38 982.1,-395.06"/>
<polygon fill="black" stroke="black" points="982.94,-398.46 991.89,-392.78 981.36,-391.64 982.94,-398.46"/>
</g>
<!-- /nix/store/nsfb8xdr47sxsfsa2bp0zf1kcm959z48&#45;bzip2&#45;1.0.6.0.1 -->
<g id="node19" class="node">
<title>/nix/store/nsfb8xdr47sxsfsa2bp0zf1kcm959z48&#45;bzip2&#45;1.0.6.0.1</title>
<polygon fill="#ff0000" stroke="black" points="1271.23,-396 1148.23,-396 1148.23,-360 1271.23,-360 1271.23,-396"/>
<text text-anchor="middle" x="1209.73" y="-374.3" font-family="Times-Roman" font-size="14.00">bzip2&#45;1.0.6.0.1</text>
</g>
<!-- /nix/store/bpgdx6qqqzzi3szb0y3di3j3660f3wkj&#45;glibc&#45;2.31&#45;&gt;/nix/store/nsfb8xdr47sxsfsa2bp0zf1kcm959z48&#45;bzip2&#45;1.0.6.0.1 -->
<g id="edge50" class="edge">
<title>/nix/store/bpgdx6qqqzzi3szb0y3di3j3660f3wkj&#45;glibc&#45;2.31&#45;&gt;/nix/store/nsfb8xdr47sxsfsa2bp0zf1kcm959z48&#45;bzip2&#45;1.0.6.0.1</title>
<path fill="none" stroke="red" d="M678.92,-446.07C765.57,-439.83 966.65,-423.49 1133.73,-396 1135.19,-395.76 1136.66,-395.51 1138.15,-395.25"/>
<polygon fill="red" stroke="red" points="1138.85,-398.68 1148.04,-393.42 1137.57,-391.8 1138.85,-398.68"/>
</g>
<!-- /nix/store/r71axjclfh7iicl3858mg6ks7q8bc9hc&#45;gdbm&#45;1.18.1 -->
<g id="node20" class="node">
<title>/nix/store/r71axjclfh7iicl3858mg6ks7q8bc9hc&#45;gdbm&#45;1.18.1</title>
<polygon fill="#ff0000" stroke="black" points="689.23,-396 582.23,-396 582.23,-360 689.23,-360 689.23,-396"/>
<text text-anchor="middle" x="635.73" y="-374.3" font-family="Times-Roman" font-size="14.00">gdbm&#45;1.18.1</text>
</g>
<!-- /nix/store/bpgdx6qqqzzi3szb0y3di3j3660f3wkj&#45;glibc&#45;2.31&#45;&gt;/nix/store/r71axjclfh7iicl3858mg6ks7q8bc9hc&#45;gdbm&#45;1.18.1 -->
<g id="edge52" class="edge">
<title>/nix/store/bpgdx6qqqzzi3szb0y3di3j3660f3wkj&#45;glibc&#45;2.31&#45;&gt;/nix/store/r71axjclfh7iicl3858mg6ks7q8bc9hc&#45;gdbm&#45;1.18.1</title>
<path fill="none" stroke="blue" d="M635.73,-431.7C635.73,-423.98 635.73,-414.71 635.73,-406.11"/>
<polygon fill="blue" stroke="blue" points="639.23,-406.1 635.73,-396.1 632.23,-406.1 639.23,-406.1"/>
</g>
<!-- /nix/store/rdd4c4iq0f87wgm5av6g5y5n35kqpfvs&#45;libffi&#45;3.3 -->
<g id="node21" class="node">
<title>/nix/store/rdd4c4iq0f87wgm5av6g5y5n35kqpfvs&#45;libffi&#45;3.3</title>
<polygon fill="#ff0000" stroke="black" points="781.73,-396 707.73,-396 707.73,-360 781.73,-360 781.73,-396"/>
<text text-anchor="middle" x="744.73" y="-374.3" font-family="Times-Roman" font-size="14.00">libffi&#45;3.3</text>
</g>
<!-- /nix/store/bpgdx6qqqzzi3szb0y3di3j3660f3wkj&#45;glibc&#45;2.31&#45;&gt;/nix/store/rdd4c4iq0f87wgm5av6g5y5n35kqpfvs&#45;libffi&#45;3.3 -->
<g id="edge53" class="edge">
<title>/nix/store/bpgdx6qqqzzi3szb0y3di3j3660f3wkj&#45;glibc&#45;2.31&#45;&gt;/nix/store/rdd4c4iq0f87wgm5av6g5y5n35kqpfvs&#45;libffi&#45;3.3</title>
<path fill="none" stroke="magenta" d="M662.39,-431.88C676.51,-422.81 694.04,-411.55 709.29,-401.76"/>
<polygon fill="magenta" stroke="magenta" points="711.44,-404.54 717.96,-396.19 707.66,-398.65 711.44,-404.54"/>
</g>
<!-- /nix/store/shvc0kvb7hgkpw3kw4qbnmac3ay4lmgq&#45;expat&#45;2.2.8 -->
<g id="node22" class="node">
<title>/nix/store/shvc0kvb7hgkpw3kw4qbnmac3ay4lmgq&#45;expat&#45;2.2.8</title>
<polygon fill="#ff0000" stroke="black" points="897.23,-396 800.23,-396 800.23,-360 897.23,-360 897.23,-396"/>
<text text-anchor="middle" x="848.73" y="-374.3" font-family="Times-Roman" font-size="14.00">expat&#45;2.2.8</text>
</g>
<!-- /nix/store/bpgdx6qqqzzi3szb0y3di3j3660f3wkj&#45;glibc&#45;2.31&#45;&gt;/nix/store/shvc0kvb7hgkpw3kw4qbnmac3ay4lmgq&#45;expat&#45;2.2.8 -->
<g id="edge55" class="edge">
<title>/nix/store/bpgdx6qqqzzi3szb0y3di3j3660f3wkj&#45;glibc&#45;2.31&#45;&gt;/nix/store/shvc0kvb7hgkpw3kw4qbnmac3ay4lmgq&#45;expat&#45;2.2.8</title>
<path fill="none" stroke="black" d="M678.83,-434.83C710.94,-424.28 755.15,-409.75 790.42,-398.16"/>
<polygon fill="black" stroke="black" points="791.7,-401.43 800.11,-394.98 789.52,-394.78 791.7,-401.43"/>
</g>
<!-- /nix/store/xnks3zfwvvqgdb2lplg3s3v41k5nnwaz&#45;coreutils&#45;8.31 -->
<g id="node23" class="node">
<title>/nix/store/xnks3zfwvvqgdb2lplg3s3v41k5nnwaz&#45;coreutils&#45;8.31</title>
<polygon fill="#ff0000" stroke="black" points="166.73,-252 54.73,-252 54.73,-216 166.73,-216 166.73,-252"/>
<text text-anchor="middle" x="110.73" y="-230.3" font-family="Times-Roman" font-size="14.00">coreutils&#45;8.31</text>
</g>
<!-- /nix/store/bpgdx6qqqzzi3szb0y3di3j3660f3wkj&#45;glibc&#45;2.31&#45;&gt;/nix/store/xnks3zfwvvqgdb2lplg3s3v41k5nnwaz&#45;coreutils&#45;8.31 -->
<g id="edge56" class="edge">
<title>/nix/store/bpgdx6qqqzzi3szb0y3di3j3660f3wkj&#45;glibc&#45;2.31&#45;&gt;/nix/store/xnks3zfwvvqgdb2lplg3s3v41k5nnwaz&#45;coreutils&#45;8.31</title>
<path fill="none" stroke="red" d="M592.65,-450C522.96,-450.04 382.5,-443.52 275.73,-396 209.38,-366.47 154.19,-297.92 127.68,-260.49"/>
<polygon fill="red" stroke="red" points="130.44,-258.34 121.86,-252.13 124.7,-262.34 130.44,-258.34"/>
</g>
<!-- /nix/store/i5y2fk24wcgn5skndjz3avc6fna1s8d3&#45;openssl&#45;1.1.1g&#45;bin -->
<g id="node24" class="node">
<title>/nix/store/i5y2fk24wcgn5skndjz3avc6fna1s8d3&#45;openssl&#45;1.1.1g&#45;bin</title>
<polygon fill="#ff0000" stroke="black" points="1372.23,-252 1225.23,-252 1225.23,-216 1372.23,-216 1372.23,-252"/>
<text text-anchor="middle" x="1298.73" y="-230.3" font-family="Times-Roman" font-size="14.00">openssl&#45;1.1.1g&#45;bin</text>
</g>
<!-- /nix/store/bpgdx6qqqzzi3szb0y3di3j3660f3wkj&#45;glibc&#45;2.31&#45;&gt;/nix/store/i5y2fk24wcgn5skndjz3avc6fna1s8d3&#45;openssl&#45;1.1.1g&#45;bin -->
<g id="edge47" class="edge">
<title>/nix/store/bpgdx6qqqzzi3szb0y3di3j3660f3wkj&#45;glibc&#45;2.31&#45;&gt;/nix/store/i5y2fk24wcgn5skndjz3avc6fna1s8d3&#45;openssl&#45;1.1.1g&#45;bin</title>
<path fill="none" stroke="magenta" d="M679.16,-447.58C818.18,-442.77 1246.32,-425.65 1300.73,-396 1348.03,-370.22 1377.24,-337.38 1355.73,-288 1350.8,-276.68 1342.12,-266.68 1333,-258.51"/>
<polygon fill="magenta" stroke="magenta" points="1335.23,-255.81 1325.31,-252.09 1330.74,-261.19 1335.23,-255.81"/>
</g>
<!-- /nix/store/mzp9ndc8rcyw6dkb4fxfw7426vb7jbvp&#45;acl&#45;2.2.53 -->
<g id="node26" class="node">
<title>/nix/store/mzp9ndc8rcyw6dkb4fxfw7426vb7jbvp&#45;acl&#45;2.2.53</title>
<polygon fill="#ff0000" stroke="black" points="103.73,-324 17.73,-324 17.73,-288 103.73,-288 103.73,-324"/>
<text text-anchor="middle" x="60.73" y="-302.3" font-family="Times-Roman" font-size="14.00">acl&#45;2.2.53</text>
</g>
<!-- /nix/store/bpgdx6qqqzzi3szb0y3di3j3660f3wkj&#45;glibc&#45;2.31&#45;&gt;/nix/store/mzp9ndc8rcyw6dkb4fxfw7426vb7jbvp&#45;acl&#45;2.2.53 -->
<g id="edge59" class="edge">
<title>/nix/store/bpgdx6qqqzzi3szb0y3di3j3660f3wkj&#45;glibc&#45;2.31&#45;&gt;/nix/store/mzp9ndc8rcyw6dkb4fxfw7426vb7jbvp&#45;acl&#45;2.2.53</title>
<path fill="none" stroke="magenta" d="M592.62,-448.24C465.49,-445.58 98.71,-434.59 62.73,-396 47.63,-379.81 48.8,-353.87 52.76,-334.16"/>
<polygon fill="magenta" stroke="magenta" points="56.22,-334.77 55.09,-324.23 49.4,-333.17 56.22,-334.77"/>
</g>
<!-- /nix/store/wpazb36f0i7dz4jqdmc25i9jf4j4g0zv&#45;attr&#45;2.4.48 -->
<g id="node27" class="node">
<title>/nix/store/wpazb36f0i7dz4jqdmc25i9jf4j4g0zv&#45;attr&#45;2.4.48</title>
<polygon fill="#ff0000" stroke="black" points="161.73,-396 71.73,-396 71.73,-360 161.73,-360 161.73,-396"/>
<text text-anchor="middle" x="116.73" y="-374.3" font-family="Times-Roman" font-size="14.00">attr&#45;2.4.48</text>
</g>
<!-- /nix/store/bpgdx6qqqzzi3szb0y3di3j3660f3wkj&#45;glibc&#45;2.31&#45;&gt;/nix/store/wpazb36f0i7dz4jqdmc25i9jf4j4g0zv&#45;attr&#45;2.4.48 -->
<g id="edge61" class="edge">
<title>/nix/store/bpgdx6qqqzzi3szb0y3di3j3660f3wkj&#45;glibc&#45;2.31&#45;&gt;/nix/store/wpazb36f0i7dz4jqdmc25i9jf4j4g0zv&#45;attr&#45;2.4.48</title>
<path fill="none" stroke="black" d="M592.55,-446.42C510.63,-441 327.27,-426.34 175.73,-396 174.47,-395.75 173.19,-395.48 171.9,-395.2"/>
<polygon fill="black" stroke="black" points="172.5,-391.74 161.96,-392.85 170.89,-398.56 172.5,-391.74"/>
</g>
<!-- /nix/store/l35vcr1l6q4wv6kqhfgi20cpwmp18ppi&#45;libidn2&#45;2.3.0 -->
<g id="node5" class="node">
<title>/nix/store/l35vcr1l6q4wv6kqhfgi20cpwmp18ppi&#45;libidn2&#45;2.3.0</title>
<polygon fill="#ff0000" stroke="black" points="688.23,-540 583.23,-540 583.23,-504 688.23,-504 688.23,-540"/>
<text text-anchor="middle" x="635.73" y="-518.3" font-family="Times-Roman" font-size="14.00">libidn2&#45;2.3.0</text>
</g>
<!-- /nix/store/l35vcr1l6q4wv6kqhfgi20cpwmp18ppi&#45;libidn2&#45;2.3.0&#45;&gt;/nix/store/bpgdx6qqqzzi3szb0y3di3j3660f3wkj&#45;glibc&#45;2.31 -->
<g id="edge4" class="edge">
<title>/nix/store/l35vcr1l6q4wv6kqhfgi20cpwmp18ppi&#45;libidn2&#45;2.3.0&#45;&gt;/nix/store/bpgdx6qqqzzi3szb0y3di3j3660f3wkj&#45;glibc&#45;2.31</title>
<path fill="none" stroke="blue" d="M635.73,-503.7C635.73,-495.98 635.73,-486.71 635.73,-478.11"/>
<polygon fill="blue" stroke="blue" points="639.23,-478.1 635.73,-468.1 632.23,-478.1 639.23,-478.1"/>
</g>
<!-- /nix/store/0dqcnzm1zippmmfcay23lnxg9wrniazs&#45;icu4c&#45;66.1&#45;&gt;/nix/store/kr8m08mrl0df6ag7wrmbih1phyd355n2&#45;nodejs&#45;14.5.0 -->
<g id="edge5" class="edge">
<title>/nix/store/0dqcnzm1zippmmfcay23lnxg9wrniazs&#45;icu4c&#45;66.1&#45;&gt;/nix/store/kr8m08mrl0df6ag7wrmbih1phyd355n2&#45;nodejs&#45;14.5.0</title>
<path fill="none" stroke="magenta" d="M328.75,-215.75C354.94,-196.62 399.45,-165.62 440.73,-144 464,-131.82 490.71,-120.61 513.99,-111.67"/>
<polygon fill="magenta" stroke="magenta" points="515.29,-114.92 523.41,-108.11 512.81,-108.38 515.29,-114.92"/>
</g>
<!-- /nix/store/0dqcnzm1zippmmfcay23lnxg9wrniazs&#45;icu4c&#45;66.1&#45;&gt;/nix/store/cmpal8wvvi9nfrsvwncqf8d0ji1iq5iq&#45;icu4c&#45;66.1&#45;dev -->
<g id="edge38" class="edge">
<title>/nix/store/0dqcnzm1zippmmfcay23lnxg9wrniazs&#45;icu4c&#45;66.1&#45;&gt;/nix/store/cmpal8wvvi9nfrsvwncqf8d0ji1iq5iq&#45;icu4c&#45;66.1&#45;dev</title>
<path fill="none" stroke="red" d="M266.1,-215.88C243.95,-206.31 216.17,-194.3 192.67,-184.15"/>
<polygon fill="red" stroke="red" points="193.8,-180.82 183.23,-180.07 191.02,-187.25 193.8,-180.82"/>
</g>
<!-- /nix/store/3qvdp59fyp81gr2dsgl950xg0w5m1d5c&#45;gcc&#45;9.3.0&#45;lib&#45;&gt;/nix/store/kr8m08mrl0df6ag7wrmbih1phyd355n2&#45;nodejs&#45;14.5.0 -->
<g id="edge6" class="edge">
<title>/nix/store/3qvdp59fyp81gr2dsgl950xg0w5m1d5c&#45;gcc&#45;9.3.0&#45;lib&#45;&gt;/nix/store/kr8m08mrl0df6ag7wrmbih1phyd355n2&#45;nodejs&#45;14.5.0</title>
<path fill="none" stroke="burlywood" d="M245.4,-287.89C241.61,-268.89 238.53,-238 251.73,-216 304,-128.89 428.24,-102.34 505.93,-94.34"/>
<polygon fill="burlywood" stroke="burlywood" points="506.47,-97.81 516.1,-93.38 505.81,-90.84 506.47,-97.81"/>
</g>
<!-- /nix/store/3qvdp59fyp81gr2dsgl950xg0w5m1d5c&#45;gcc&#45;9.3.0&#45;lib&#45;&gt;/nix/store/0dqcnzm1zippmmfcay23lnxg9wrniazs&#45;icu4c&#45;66.1 -->
<g id="edge16" class="edge">
<title>/nix/store/3qvdp59fyp81gr2dsgl950xg0w5m1d5c&#45;gcc&#45;9.3.0&#45;lib&#45;&gt;/nix/store/0dqcnzm1zippmmfcay23lnxg9wrniazs&#45;icu4c&#45;66.1</title>
<path fill="none" stroke="blue" d="M263.57,-287.7C270.22,-279.39 278.31,-269.28 285.62,-260.14"/>
<polygon fill="blue" stroke="blue" points="288.53,-262.1 292.05,-252.1 283.07,-257.73 288.53,-262.1"/>
</g>
<!-- /nix/store/3qvdp59fyp81gr2dsgl950xg0w5m1d5c&#45;gcc&#45;9.3.0&#45;lib&#45;&gt;/nix/store/cmpal8wvvi9nfrsvwncqf8d0ji1iq5iq&#45;icu4c&#45;66.1&#45;dev -->
<g id="edge39" class="edge">
<title>/nix/store/3qvdp59fyp81gr2dsgl950xg0w5m1d5c&#45;gcc&#45;9.3.0&#45;lib&#45;&gt;/nix/store/cmpal8wvvi9nfrsvwncqf8d0ji1iq5iq&#45;icu4c&#45;66.1&#45;dev</title>
<path fill="none" stroke="green" d="M236.94,-287.87C218.48,-263.14 184.22,-217.24 162.77,-188.51"/>
<polygon fill="green" stroke="green" points="165.35,-186.11 156.56,-180.19 159.74,-190.3 165.35,-186.11"/>
</g>
<!-- /nix/store/7q4crsd8kvmma32ff2xw4w9ydj5k26cy&#45;python3&#45;3.8.3&#45;&gt;/nix/store/kr8m08mrl0df6ag7wrmbih1phyd355n2&#45;nodejs&#45;14.5.0 -->
<g id="edge7" class="edge">
<title>/nix/store/7q4crsd8kvmma32ff2xw4w9ydj5k26cy&#45;python3&#45;3.8.3&#45;&gt;/nix/store/kr8m08mrl0df6ag7wrmbih1phyd355n2&#45;nodejs&#45;14.5.0</title>
<path fill="none" stroke="black" d="M836.84,-215.85C824.29,-195.61 800.73,-162.4 771.73,-144 731.93,-118.75 680.35,-105.45 639.68,-98.49"/>
<polygon fill="black" stroke="black" points="640.02,-95 629.59,-96.85 638.9,-101.91 640.02,-95"/>
</g>
<!-- /nix/store/a9d3hw7jnhlk9i7w2crni4fc6s1yxzl3&#45;libuv&#45;1.38.0&#45;&gt;/nix/store/kr8m08mrl0df6ag7wrmbih1phyd355n2&#45;nodejs&#45;14.5.0 -->
<g id="edge8" class="edge">
<title>/nix/store/a9d3hw7jnhlk9i7w2crni4fc6s1yxzl3&#45;libuv&#45;1.38.0&#45;&gt;/nix/store/kr8m08mrl0df6ag7wrmbih1phyd355n2&#45;nodejs&#45;14.5.0</title>
<path fill="none" stroke="red" d="M543.37,-143.7C547.86,-135.64 553.29,-125.89 558.25,-116.98"/>
<polygon fill="red" stroke="red" points="561.39,-118.54 563.2,-108.1 555.28,-115.14 561.39,-118.54"/>
</g>
<!-- /nix/store/cmpal8wvvi9nfrsvwncqf8d0ji1iq5iq&#45;icu4c&#45;66.1&#45;dev&#45;&gt;/nix/store/kr8m08mrl0df6ag7wrmbih1phyd355n2&#45;nodejs&#45;14.5.0 -->
<g id="edge11" class="edge">
<title>/nix/store/cmpal8wvvi9nfrsvwncqf8d0ji1iq5iq&#45;icu4c&#45;66.1&#45;dev&#45;&gt;/nix/store/kr8m08mrl0df6ag7wrmbih1phyd355n2&#45;nodejs&#45;14.5.0</title>
<path fill="none" stroke="magenta" d="M204.23,-146.88C209.13,-145.86 214.01,-144.89 218.73,-144 318.27,-125.29 434.55,-108.92 505.91,-99.5"/>
<polygon fill="magenta" stroke="magenta" points="506.65,-102.93 516.11,-98.16 505.74,-95.99 506.65,-102.93"/>
</g>
<!-- /nix/store/fn0kwfwaf53638xm37wl94la8dxlbjaq&#45;zlib&#45;1.2.11&#45;dev -->
<g id="node11" class="node">
<title>/nix/store/fn0kwfwaf53638xm37wl94la8dxlbjaq&#45;zlib&#45;1.2.11&#45;dev</title>
<polygon fill="#ff0000" stroke="black" points="762.73,-180 640.73,-180 640.73,-144 762.73,-144 762.73,-180"/>
<text text-anchor="middle" x="701.73" y="-158.3" font-family="Times-Roman" font-size="14.00">zlib&#45;1.2.11&#45;dev</text>
</g>
<!-- /nix/store/fn0kwfwaf53638xm37wl94la8dxlbjaq&#45;zlib&#45;1.2.11&#45;dev&#45;&gt;/nix/store/kr8m08mrl0df6ag7wrmbih1phyd355n2&#45;nodejs&#45;14.5.0 -->
<g id="edge12" class="edge">
<title>/nix/store/fn0kwfwaf53638xm37wl94la8dxlbjaq&#45;zlib&#45;1.2.11&#45;dev&#45;&gt;/nix/store/kr8m08mrl0df6ag7wrmbih1phyd355n2&#45;nodejs&#45;14.5.0</title>
<path fill="none" stroke="burlywood" d="M670.17,-143.88C653.07,-134.6 631.75,-123.03 613.41,-113.08"/>
<polygon fill="burlywood" stroke="burlywood" points="614.87,-109.88 604.41,-108.19 611.53,-116.04 614.87,-109.88"/>
</g>
<!-- /nix/store/kjr9lgwrs0ckk5cmpz0r1rxl92mmxs00&#45;openssl&#45;1.1.1g&#45;dev -->
<g id="node12" class="node">
<title>/nix/store/kjr9lgwrs0ckk5cmpz0r1rxl92mmxs00&#45;openssl&#45;1.1.1g&#45;dev</title>
<polygon fill="#ff0000" stroke="black" points="1272.23,-180 1121.23,-180 1121.23,-144 1272.23,-144 1272.23,-180"/>
<text text-anchor="middle" x="1196.73" y="-158.3" font-family="Times-Roman" font-size="14.00">openssl&#45;1.1.1g&#45;dev</text>
</g>
<!-- /nix/store/kjr9lgwrs0ckk5cmpz0r1rxl92mmxs00&#45;openssl&#45;1.1.1g&#45;dev&#45;&gt;/nix/store/kr8m08mrl0df6ag7wrmbih1phyd355n2&#45;nodejs&#45;14.5.0 -->
<g id="edge13" class="edge">
<title>/nix/store/kjr9lgwrs0ckk5cmpz0r1rxl92mmxs00&#45;openssl&#45;1.1.1g&#45;dev&#45;&gt;/nix/store/kr8m08mrl0df6ag7wrmbih1phyd355n2&#45;nodejs&#45;14.5.0</title>
<path fill="none" stroke="black" d="M1121.15,-152.52C998.15,-138.72 756.68,-111.64 639.57,-98.5"/>
<polygon fill="black" stroke="black" points="639.64,-94.98 629.32,-97.35 638.86,-101.94 639.64,-94.98"/>
</g>
<!-- /nix/store/p1vgrfa31k73256nbrqsqcnvb9ij84lh&#45;zlib&#45;1.2.11&#45;&gt;/nix/store/kr8m08mrl0df6ag7wrmbih1phyd355n2&#45;nodejs&#45;14.5.0 -->
<g id="edge14" class="edge">
<title>/nix/store/p1vgrfa31k73256nbrqsqcnvb9ij84lh&#45;zlib&#45;1.2.11&#45;&gt;/nix/store/kr8m08mrl0df6ag7wrmbih1phyd355n2&#45;nodejs&#45;14.5.0</title>
<path fill="none" stroke="red" d="M493.73,-359.93C519.42,-327.39 573.24,-253.15 592.73,-180 598.25,-159.28 592.33,-135.57 585.54,-117.84"/>
<polygon fill="red" stroke="red" points="588.58,-116.05 581.51,-108.16 582.12,-118.74 588.58,-116.05"/>
</g>
<!-- /nix/store/p1vgrfa31k73256nbrqsqcnvb9ij84lh&#45;zlib&#45;1.2.11&#45;&gt;/nix/store/7q4crsd8kvmma32ff2xw4w9ydj5k26cy&#45;python3&#45;3.8.3 -->
<g id="edge27" class="edge">
<title>/nix/store/p1vgrfa31k73256nbrqsqcnvb9ij84lh&#45;zlib&#45;1.2.11&#45;&gt;/nix/store/7q4crsd8kvmma32ff2xw4w9ydj5k26cy&#45;python3&#45;3.8.3</title>
<path fill="none" stroke="green" d="M519.84,-359.89C540.47,-350.41 565.64,-337.77 586.73,-324 607.6,-310.37 607.49,-299.25 629.73,-288 676.44,-264.37 734.23,-250.93 778.42,-243.49"/>
<polygon fill="green" stroke="green" points="779.17,-246.92 788.49,-241.86 778.05,-240.01 779.17,-246.92"/>
</g>
<!-- /nix/store/p1vgrfa31k73256nbrqsqcnvb9ij84lh&#45;zlib&#45;1.2.11&#45;&gt;/nix/store/fn0kwfwaf53638xm37wl94la8dxlbjaq&#45;zlib&#45;1.2.11&#45;dev -->
<g id="edge44" class="edge">
<title>/nix/store/p1vgrfa31k73256nbrqsqcnvb9ij84lh&#45;zlib&#45;1.2.11&#45;&gt;/nix/store/fn0kwfwaf53638xm37wl94la8dxlbjaq&#45;zlib&#45;1.2.11&#45;dev</title>
<path fill="none" stroke="red" d="M503.77,-359.97C517.38,-349.98 534.47,-336.83 548.73,-324 598.66,-279.05 651.5,-220.71 680.16,-188.02"/>
<polygon fill="red" stroke="red" points="682.97,-190.13 686.9,-180.29 677.69,-185.52 682.97,-190.13"/>
</g>
<!-- /nix/store/p1vgrfa31k73256nbrqsqcnvb9ij84lh&#45;zlib&#45;1.2.11&#45;&gt;/nix/store/baj4p57p126mlan10gd4xar1idmkqxz8&#45;sqlite&#45;3.32.3 -->
<g id="edge36" class="edge">
<title>/nix/store/p1vgrfa31k73256nbrqsqcnvb9ij84lh&#45;zlib&#45;1.2.11&#45;&gt;/nix/store/baj4p57p126mlan10gd4xar1idmkqxz8&#45;sqlite&#45;3.32.3</title>
<path fill="none" stroke="burlywood" d="M525.25,-361.9C555.8,-351.76 596.38,-338.3 629.72,-327.24"/>
<polygon fill="burlywood" stroke="burlywood" points="630.97,-330.51 639.36,-324.04 628.76,-323.87 630.97,-330.51"/>
</g>
<!-- /nix/store/rn5djk7q6wd8xzdbnmh649fdmbd8pwgk&#45;openssl&#45;1.1.1g&#45;&gt;/nix/store/kr8m08mrl0df6ag7wrmbih1phyd355n2&#45;nodejs&#45;14.5.0 -->
<g id="edge15" class="edge">
<title>/nix/store/rn5djk7q6wd8xzdbnmh649fdmbd8pwgk&#45;openssl&#45;1.1.1g&#45;&gt;/nix/store/kr8m08mrl0df6ag7wrmbih1phyd355n2&#45;nodejs&#45;14.5.0</title>
<path fill="none" stroke="green" d="M1240.67,-287.93C1155.43,-256.73 966.98,-189.51 804.73,-144 749.51,-128.51 685.96,-114.24 639.35,-104.41"/>
<polygon fill="green" stroke="green" points="639.88,-100.95 629.37,-102.32 638.44,-107.8 639.88,-100.95"/>
</g>
<!-- /nix/store/rn5djk7q6wd8xzdbnmh649fdmbd8pwgk&#45;openssl&#45;1.1.1g&#45;&gt;/nix/store/7q4crsd8kvmma32ff2xw4w9ydj5k26cy&#45;python3&#45;3.8.3 -->
<g id="edge30" class="edge">
<title>/nix/store/rn5djk7q6wd8xzdbnmh649fdmbd8pwgk&#45;openssl&#45;1.1.1g&#45;&gt;/nix/store/7q4crsd8kvmma32ff2xw4w9ydj5k26cy&#45;python3&#45;3.8.3</title>
<path fill="none" stroke="burlywood" d="M1226.64,-290.76C1221.94,-289.78 1217.26,-288.85 1212.73,-288 1109.51,-268.7 988.78,-252.43 915.06,-243.19"/>
<polygon fill="burlywood" stroke="burlywood" points="915.33,-239.7 904.97,-241.94 914.46,-246.65 915.33,-239.7"/>
</g>
<!-- /nix/store/rn5djk7q6wd8xzdbnmh649fdmbd8pwgk&#45;openssl&#45;1.1.1g&#45;&gt;/nix/store/kjr9lgwrs0ckk5cmpz0r1rxl92mmxs00&#45;openssl&#45;1.1.1g&#45;dev -->
<g id="edge46" class="edge">
<title>/nix/store/rn5djk7q6wd8xzdbnmh649fdmbd8pwgk&#45;openssl&#45;1.1.1g&#45;&gt;/nix/store/kjr9lgwrs0ckk5cmpz0r1rxl92mmxs00&#45;openssl&#45;1.1.1g&#45;dev</title>
<path fill="none" stroke="blue" d="M1255.05,-287.89C1241.31,-278.93 1226.22,-266.74 1216.73,-252 1204.84,-233.52 1199.96,-208.93 1197.99,-190.27"/>
<polygon fill="blue" stroke="blue" points="1201.46,-189.74 1197.13,-180.07 1194.48,-190.33 1201.46,-189.74"/>
</g>
<!-- /nix/store/rn5djk7q6wd8xzdbnmh649fdmbd8pwgk&#45;openssl&#45;1.1.1g&#45;&gt;/nix/store/i5y2fk24wcgn5skndjz3avc6fna1s8d3&#45;openssl&#45;1.1.1g&#45;bin -->
<g id="edge48" class="edge">
<title>/nix/store/rn5djk7q6wd8xzdbnmh649fdmbd8pwgk&#45;openssl&#45;1.1.1g&#45;&gt;/nix/store/i5y2fk24wcgn5skndjz3avc6fna1s8d3&#45;openssl&#45;1.1.1g&#45;bin</title>
<path fill="none" stroke="burlywood" d="M1289.7,-287.7C1291.02,-279.98 1292.61,-270.71 1294.08,-262.11"/>
<polygon fill="burlywood" stroke="burlywood" points="1297.56,-262.55 1295.8,-252.1 1290.66,-261.37 1297.56,-262.55"/>
</g>
<!-- /nix/store/1jzmwqrpknlbfnb9a4r5qfw9iz292m9w&#45;readline&#45;6.3p08&#45;&gt;/nix/store/7q4crsd8kvmma32ff2xw4w9ydj5k26cy&#45;python3&#45;3.8.3 -->
<g id="edge20" class="edge">
<title>/nix/store/1jzmwqrpknlbfnb9a4r5qfw9iz292m9w&#45;readline&#45;6.3p08&#45;&gt;/nix/store/7q4crsd8kvmma32ff2xw4w9ydj5k26cy&#45;python3&#45;3.8.3</title>
<path fill="none" stroke="red" d="M1043.46,-287.97C1004.52,-277.48 954.62,-264.05 914.83,-253.33"/>
<polygon fill="red" stroke="red" points="915.5,-249.89 904.94,-250.67 913.68,-256.65 915.5,-249.89"/>
</g>
<!-- /nix/store/baj4p57p126mlan10gd4xar1idmkqxz8&#45;sqlite&#45;3.32.3&#45;&gt;/nix/store/7q4crsd8kvmma32ff2xw4w9ydj5k26cy&#45;python3&#45;3.8.3 -->
<g id="edge21" class="edge">
<title>/nix/store/baj4p57p126mlan10gd4xar1idmkqxz8&#45;sqlite&#45;3.32.3&#45;&gt;/nix/store/7q4crsd8kvmma32ff2xw4w9ydj5k26cy&#45;python3&#45;3.8.3</title>
<path fill="none" stroke="green" d="M728.89,-287.88C750.12,-278.35 776.74,-266.41 799.3,-256.28"/>
<polygon fill="green" stroke="green" points="801,-259.36 808.69,-252.07 798.13,-252.97 801,-259.36"/>
</g>
<!-- /nix/store/cfg4p75j32wmjrhfhkmnx7d9hhjnzmz8&#45;xz&#45;5.2.5&#45;&gt;/nix/store/7q4crsd8kvmma32ff2xw4w9ydj5k26cy&#45;python3&#45;3.8.3 -->
<g id="edge24" class="edge">
<title>/nix/store/cfg4p75j32wmjrhfhkmnx7d9hhjnzmz8&#45;xz&#45;5.2.5&#45;&gt;/nix/store/7q4crsd8kvmma32ff2xw4w9ydj5k26cy&#45;python3&#45;3.8.3</title>
<path fill="none" stroke="burlywood" d="M924.53,-287.88C911.31,-278.89 894.94,-267.76 880.62,-258.03"/>
<polygon fill="burlywood" stroke="burlywood" points="882.26,-254.92 872.02,-252.19 878.33,-260.71 882.26,-254.92"/>
</g>
<!-- /nix/store/dgdach00xn196vjsnmisak3maab7x6w5&#45;ncurses&#45;6.2&#45;&gt;/nix/store/7q4crsd8kvmma32ff2xw4w9ydj5k26cy&#45;python3&#45;3.8.3 -->
<g id="edge25" class="edge">
<title>/nix/store/dgdach00xn196vjsnmisak3maab7x6w5&#45;ncurses&#45;6.2&#45;&gt;/nix/store/7q4crsd8kvmma32ff2xw4w9ydj5k26cy&#45;python3&#45;3.8.3</title>
<path fill="none" stroke="black" d="M1037.07,-359.85C1030.83,-339.93 1017.87,-307.33 995.73,-288 973.07,-268.22 942.52,-255.66 914.98,-247.77"/>
<polygon fill="black" stroke="black" points="915.56,-244.3 904.99,-245.07 913.73,-251.06 915.56,-244.3"/>
</g>
<!-- /nix/store/dgdach00xn196vjsnmisak3maab7x6w5&#45;ncurses&#45;6.2&#45;&gt;/nix/store/1jzmwqrpknlbfnb9a4r5qfw9iz292m9w&#45;readline&#45;6.3p08 -->
<g id="edge33" class="edge">
<title>/nix/store/dgdach00xn196vjsnmisak3maab7x6w5&#45;ncurses&#45;6.2&#45;&gt;/nix/store/1jzmwqrpknlbfnb9a4r5qfw9iz292m9w&#45;readline&#45;6.3p08</title>
<path fill="none" stroke="green" d="M1057.8,-359.7C1065.67,-351.22 1075.28,-340.86 1083.9,-331.58"/>
<polygon fill="green" stroke="green" points="1086.61,-333.81 1090.85,-324.1 1081.48,-329.05 1086.61,-333.81"/>
</g>
<!-- /nix/store/nsfb8xdr47sxsfsa2bp0zf1kcm959z48&#45;bzip2&#45;1.0.6.0.1&#45;&gt;/nix/store/7q4crsd8kvmma32ff2xw4w9ydj5k26cy&#45;python3&#45;3.8.3 -->
<g id="edge26" class="edge">
<title>/nix/store/nsfb8xdr47sxsfsa2bp0zf1kcm959z48&#45;bzip2&#45;1.0.6.0.1&#45;&gt;/nix/store/7q4crsd8kvmma32ff2xw4w9ydj5k26cy&#45;python3&#45;3.8.3</title>
<path fill="none" stroke="red" d="M1209.01,-359.67C1207.18,-339.27 1200.9,-305.89 1179.73,-288 1169.69,-279.51 1009.66,-256.82 915.16,-244.06"/>
<polygon fill="red" stroke="red" points="915.48,-240.57 905.1,-242.7 914.54,-247.5 915.48,-240.57"/>
</g>
<!-- /nix/store/r71axjclfh7iicl3858mg6ks7q8bc9hc&#45;gdbm&#45;1.18.1&#45;&gt;/nix/store/7q4crsd8kvmma32ff2xw4w9ydj5k26cy&#45;python3&#45;3.8.3 -->
<g id="edge28" class="edge">
<title>/nix/store/r71axjclfh7iicl3858mg6ks7q8bc9hc&#45;gdbm&#45;1.18.1&#45;&gt;/nix/store/7q4crsd8kvmma32ff2xw4w9ydj5k26cy&#45;python3&#45;3.8.3</title>
<path fill="none" stroke="blue" d="M684.08,-359.99C705.86,-351.08 731.22,-338.91 751.73,-324 769.28,-311.24 769.12,-303.08 784.73,-288 795.12,-277.97 807.07,-267.51 817.69,-258.57"/>
<polygon fill="blue" stroke="blue" points="820.07,-261.15 825.51,-252.06 815.58,-255.77 820.07,-261.15"/>
</g>
<!-- /nix/store/rdd4c4iq0f87wgm5av6g5y5n35kqpfvs&#45;libffi&#45;3.3&#45;&gt;/nix/store/7q4crsd8kvmma32ff2xw4w9ydj5k26cy&#45;python3&#45;3.8.3 -->
<g id="edge29" class="edge">
<title>/nix/store/rdd4c4iq0f87wgm5av6g5y5n35kqpfvs&#45;libffi&#45;3.3&#45;&gt;/nix/store/7q4crsd8kvmma32ff2xw4w9ydj5k26cy&#45;python3&#45;3.8.3</title>
<path fill="none" stroke="magenta" d="M757.87,-359.94C765.75,-349.61 775.93,-336.13 784.73,-324 799.98,-302.97 816.8,-278.76 829.07,-260.91"/>
<polygon fill="magenta" stroke="magenta" points="832.27,-262.43 835.03,-252.2 826.49,-258.47 832.27,-262.43"/>
</g>
<!-- /nix/store/shvc0kvb7hgkpw3kw4qbnmac3ay4lmgq&#45;expat&#45;2.2.8&#45;&gt;/nix/store/7q4crsd8kvmma32ff2xw4w9ydj5k26cy&#45;python3&#45;3.8.3 -->
<g id="edge31" class="edge">
<title>/nix/store/shvc0kvb7hgkpw3kw4qbnmac3ay4lmgq&#45;expat&#45;2.2.8&#45;&gt;/nix/store/7q4crsd8kvmma32ff2xw4w9ydj5k26cy&#45;python3&#45;3.8.3</title>
<path fill="none" stroke="black" d="M848.49,-359.87C848.15,-335.67 847.52,-291.21 847.12,-262.39"/>
<polygon fill="black" stroke="black" points="850.61,-262.14 846.97,-252.19 843.61,-262.24 850.61,-262.14"/>
</g>
<!-- /nix/store/xnks3zfwvvqgdb2lplg3s3v41k5nnwaz&#45;coreutils&#45;8.31&#45;&gt;/nix/store/cmpal8wvvi9nfrsvwncqf8d0ji1iq5iq&#45;icu4c&#45;66.1&#45;dev -->
<g id="edge42" class="edge">
<title>/nix/store/xnks3zfwvvqgdb2lplg3s3v41k5nnwaz&#45;coreutils&#45;8.31&#45;&gt;/nix/store/cmpal8wvvi9nfrsvwncqf8d0ji1iq5iq&#45;icu4c&#45;66.1&#45;dev</title>
<path fill="none" stroke="burlywood" d="M118.89,-215.7C122.64,-207.73 127.18,-198.1 131.35,-189.26"/>
<polygon fill="burlywood" stroke="burlywood" points="134.57,-190.64 135.67,-180.1 128.24,-187.66 134.57,-190.64"/>
</g>
<!-- /nix/store/i5y2fk24wcgn5skndjz3avc6fna1s8d3&#45;openssl&#45;1.1.1g&#45;bin&#45;&gt;/nix/store/kjr9lgwrs0ckk5cmpz0r1rxl92mmxs00&#45;openssl&#45;1.1.1g&#45;dev -->
<g id="edge45" class="edge">
<title>/nix/store/i5y2fk24wcgn5skndjz3avc6fna1s8d3&#45;openssl&#45;1.1.1g&#45;bin&#45;&gt;/nix/store/kjr9lgwrs0ckk5cmpz0r1rxl92mmxs00&#45;openssl&#45;1.1.1g&#45;dev</title>
<path fill="none" stroke="green" d="M1273.78,-215.88C1260.69,-206.89 1244.47,-195.76 1230.29,-186.03"/>
<polygon fill="green" stroke="green" points="1232,-182.96 1221.78,-180.19 1228.04,-188.73 1232,-182.96"/>
</g>
<!-- /nix/store/xbgnvmvfsbkvpjdzvil54kivi0xd37pj&#45;libunistring&#45;0.9.10 -->
<g id="node25" class="node">
<title>/nix/store/xbgnvmvfsbkvpjdzvil54kivi0xd37pj&#45;libunistring&#45;0.9.10</title>
<polygon fill="#ff0000" stroke="black" points="708.73,-612 562.73,-612 562.73,-576 708.73,-576 708.73,-612"/>
<text text-anchor="middle" x="635.73" y="-590.3" font-family="Times-Roman" font-size="14.00">libunistring&#45;0.9.10</text>
</g>
<!-- /nix/store/xbgnvmvfsbkvpjdzvil54kivi0xd37pj&#45;libunistring&#45;0.9.10&#45;&gt;/nix/store/l35vcr1l6q4wv6kqhfgi20cpwmp18ppi&#45;libidn2&#45;2.3.0 -->
<g id="edge49" class="edge">
<title>/nix/store/xbgnvmvfsbkvpjdzvil54kivi0xd37pj&#45;libunistring&#45;0.9.10&#45;&gt;/nix/store/l35vcr1l6q4wv6kqhfgi20cpwmp18ppi&#45;libidn2&#45;2.3.0</title>
<path fill="none" stroke="black" d="M635.73,-575.7C635.73,-567.98 635.73,-558.71 635.73,-550.11"/>
<polygon fill="black" stroke="black" points="639.23,-550.1 635.73,-540.1 632.23,-550.1 639.23,-550.1"/>
</g>
<!-- /nix/store/mzp9ndc8rcyw6dkb4fxfw7426vb7jbvp&#45;acl&#45;2.2.53&#45;&gt;/nix/store/xnks3zfwvvqgdb2lplg3s3v41k5nnwaz&#45;coreutils&#45;8.31 -->
<g id="edge57" class="edge">
<title>/nix/store/mzp9ndc8rcyw6dkb4fxfw7426vb7jbvp&#45;acl&#45;2.2.53&#45;&gt;/nix/store/xnks3zfwvvqgdb2lplg3s3v41k5nnwaz&#45;coreutils&#45;8.31</title>
<path fill="none" stroke="green" d="M73.09,-287.7C78.96,-279.47 86.1,-269.48 92.57,-260.42"/>
<polygon fill="green" stroke="green" points="95.55,-262.28 98.51,-252.1 89.85,-258.21 95.55,-262.28"/>
</g>
<!-- /nix/store/wpazb36f0i7dz4jqdmc25i9jf4j4g0zv&#45;attr&#45;2.4.48&#45;&gt;/nix/store/xnks3zfwvvqgdb2lplg3s3v41k5nnwaz&#45;coreutils&#45;8.31 -->
<g id="edge58" class="edge">
<title>/nix/store/wpazb36f0i7dz4jqdmc25i9jf4j4g0zv&#45;attr&#45;2.4.48&#45;&gt;/nix/store/xnks3zfwvvqgdb2lplg3s3v41k5nnwaz&#45;coreutils&#45;8.31</title>
<path fill="none" stroke="blue" d="M116.01,-359.87C114.98,-335.67 113.1,-291.21 111.89,-262.39"/>
<polygon fill="blue" stroke="blue" points="115.37,-262.03 111.46,-252.19 108.38,-262.33 115.37,-262.03"/>
</g>
<!-- /nix/store/wpazb36f0i7dz4jqdmc25i9jf4j4g0zv&#45;attr&#45;2.4.48&#45;&gt;/nix/store/mzp9ndc8rcyw6dkb4fxfw7426vb7jbvp&#45;acl&#45;2.2.53 -->
<g id="edge60" class="edge">
<title>/nix/store/wpazb36f0i7dz4jqdmc25i9jf4j4g0zv&#45;attr&#45;2.4.48&#45;&gt;/nix/store/mzp9ndc8rcyw6dkb4fxfw7426vb7jbvp&#45;acl&#45;2.2.53</title>
<path fill="none" stroke="burlywood" d="M102.89,-359.7C96.24,-351.39 88.15,-341.28 80.84,-332.14"/>
<polygon fill="burlywood" stroke="burlywood" points="83.39,-329.73 74.41,-324.1 77.93,-334.1 83.39,-329.73"/>
</g>
</g>
</svg>
